{
	"asset":{
		"generator":"Khronos glTF Blender I/O v4.2.69",
		"version":"2.0"
	},
	"scene":0,
	"scenes":[
		{
			"name":"Scene",
			"nodes":[
				0,
				1
			]
		}
	],
	"nodes":[
		{
			"name":"Empty",
			"translation":[
				2.435842275619507,
				0.01898244395852089,
				-4.587760925292969
			]
		},
		{
			"mesh":0,
			"name":"Cube.003",
			"scale":[
				1.5,
				0.10000000149011612,
				1.5499999523162842
			],
			"translation":[
				0.6151714324951172,
				-0.8639256954193115,
				-1.331314206123352
			]
		}
	],
	"meshes":[
		{
			"name":"Cube.003",
			"primitives":[
				{
					"attributes":{
						"POSITION":0,
						"NORMAL":1,
						"TEXCOORD_0":2
					},
					"indices":3
				}
			]
		}
	],
	"accessors":[
		{
			"bufferView":0,
			"componentType":5126,
			"count":180,
			"max":[
				0.0010018125176429749,
				1,
				0.9747813940048218
			],
			"min":[
				-0.8014805316925049,
				-1,
				-0.9675979614257812
			],
			"type":"VEC3"
		},
		{
			"bufferView":1,
			"componentType":5126,
			"count":180,
			"type":"VEC3"
		},
		{
			"bufferView":2,
			"componentType":5126,
			"count":180,
			"type":"VEC2"
		},
		{
			"bufferView":3,
			"componentType":5123,
			"count":348,
			"type":"SCALAR"
		}
	],
	"bufferViews":[
		{
			"buffer":0,
			"byteLength":2160,
			"byteOffset":0,
			"target":34962
		},
		{
			"buffer":0,
			"byteLength":2160,
			"byteOffset":2160,
			"target":34962
		},
		{
			"buffer":0,
			"byteLength":1440,
			"byteOffset":4320,
			"target":34962
		},
		{
			"buffer":0,
			"byteLength":696,
			"byteOffset":5760,
			"target":34963
		}
	],
	"buffers":[
		{
			"byteLength":6456,
			"uri":"escudo.bin"
		}
	]
}
